<svg width="793" height="1371" viewBox="0 0 793 1371" fill="none" xmlns="http://www.w3.org/2000/svg">
<rect y="1370.4" width="1024" height="793" transform="rotate(-90 0 1370.4)" fill="#262529"/>
<rect x="396.677" y="1332" width="79" height="20" transform="rotate(-90 396.677 1332)" fill="white"/>
<rect x="396.677" y="1153" width="79" height="20" transform="rotate(-90 396.677 1153)" fill="white"/>
<rect x="396.677" y="974" width="79" height="20" transform="rotate(-90 396.677 974)" fill="white"/>
<rect x="396.677" y="795" width="79" height="20" transform="rotate(-90 396.677 795)" fill="white"/>
<rect x="396.677" y="616" width="79" height="20" transform="rotate(-90 396.677 616)" fill="white"/>
<rect x="396.677" y="437" width="79" height="20" transform="rotate(-90 396.677 437)" fill="white"/>
<rect x="396.677" y="258" width="79" height="20" transform="rotate(-90 396.677 258)" fill="white"/>
<rect x="396.677" y="79" width="79" height="20" transform="rotate(-90 396.677 79)" fill="white"/>
<rect x="650" y="1370.4" width="1024" height="12" transform="rotate(-90 650 1370.4)" fill="#D99C30"/>
<rect x="151" y="1370.4" width="1024" height="12" transform="rotate(-90 151 1370.4)" fill="#D99C30"/>
</svg>
